# xmcd
# 
# Track frame offsets:
#     150
#     22637
#     37845
#     54045
#     74842
#     94710
#     118217
#     137570
#     157032
#     180972
#     200407
#     219567
#     236825
#     257732
#     280612
#     298087
#     325292
# 
# Disc length: 4636
# 
# Revision: 13
# Processed by: cddbd v1.5.2PL0 Copyright (c) Steve Scherf et al.
# Submitted via: fre:ac v1.0.31
# 
DISCID=f2121a11
DTITLE=JUDY AND MARY - FRESH
DYEAR=2000
DGENRE=JPop
TTITLE0=POWER OF LOVE
TTITLE1=BLUE TEARS
TTITLE2=DAYDREAM
TTITLE3=Hello! Orange Sunshine
TTITLE4=RADIO
TTITLE5=小さな頃から
TTITLE6=自転車
TTITLE7=Over Drive
TTITLE8=KYOTO
TTITLE9=ドキドキ
TTITLE10=そばかす
TTITLE11=クラシック
TTITLE12=くじら12号
TTITLE13=散歩道
TTITLE14=ミュージック ファイター
TTITLE15=LOVER SOUL
TTITLE16=Brand New Wave Upper Ground
EXTD=YEAR: 2000
EXTT0=
EXTT1=
EXTT2=
EXTT3=
EXTT4=
EXTT5=
EXTT6=
EXTT7=
EXTT8=
EXTT9=
EXTT10=
EXTT11=
EXTT12=
EXTT13=
EXTT14=
EXTT15=
EXTT16=
PLAYORDER=
